<?xml version="1.0" standalone="no"?>
<!DOCTYPE svg PUBLIC "-//W3C//DTD SVG 20010904//EN"
 "http://www.w3.org/TR/2001/REC-SVG-20010904/DTD/svg10.dtd">
<svg version="1.0" xmlns="http://www.w3.org/2000/svg"
 width="1667.000000pt" height="1667.000000pt" viewBox="0 0 1667.000000 1667.000000"
 preserveAspectRatio="xMidYMid meet">

<g transform="translate(0.000000,1667.000000) scale(0.100000,-0.100000)"
fill="#000000" stroke="none">
<path d="M8820 15958 c-14 -6 -40 -10 -58 -9 -22 1 -31 -2 -27 -9 12 -20 -17
-40 -57 -40 -28 0 -49 -7 -70 -25 -16 -14 -38 -25 -47 -25 -10 0 -30 -9 -44
-20 -14 -11 -30 -20 -36 -20 -5 0 -41 -15 -78 -34 -37 -19 -97 -46 -133 -61
-36 -15 -90 -42 -121 -60 -31 -18 -67 -36 -80 -40 -13 -4 -35 -16 -48 -26 -13
-11 -29 -19 -35 -19 -5 0 -89 -39 -186 -86 -96 -47 -236 -115 -310 -151 -74
-36 -146 -72 -160 -80 -14 -8 -50 -26 -80 -40 -30 -14 -83 -39 -117 -55 -34
-16 -65 -33 -68 -38 -3 -4 -20 -12 -37 -16 -18 -3 -49 -17 -70 -30 -21 -13
-40 -24 -42 -24 -11 0 -217 -103 -222 -111 -3 -5 -16 -9 -30 -9 -13 0 -24 -4
-24 -8 0 -10 -133 -77 -172 -87 -15 -4 -32 -13 -39 -21 -6 -8 -17 -14 -24 -14
-7 0 -23 -9 -37 -19 -13 -11 -37 -23 -51 -26 -15 -4 -27 -11 -27 -17 0 -15
-52 -59 -89 -74 -29 -12 -39 -12 -77 1 -43 14 -65 33 -223 185 -149 143 -202
190 -216 190 -8 0 -15 5 -15 11 0 6 -17 27 -37 45 -21 19 -68 63 -105 99 -70
69 -100 80 -129 48 -9 -10 -53 -52 -98 -93 -45 -41 -100 -92 -122 -113 -23
-20 -50 -42 -60 -48 -10 -5 -19 -16 -19 -24 0 -8 -5 -15 -11 -15 -16 0 -79
-54 -79 -67 0 -7 -6 -13 -12 -13 -7 0 -69 -54 -138 -120 -68 -66 -128 -120
-132 -120 -4 0 -8 -6 -8 -13 0 -8 -11 -19 -25 -25 -14 -7 -25 -20 -25 -31 0
-18 7 -20 78 -19 51 0 86 6 104 16 21 12 32 13 51 5 16 -7 29 -8 41 -1 10 6
48 12 85 14 158 9 369 27 416 36 89 17 228 30 305 28 55 -1 92 4 141 21 57 19
75 21 124 13 32 -5 60 -14 62 -21 5 -15 -72 -59 -118 -67 -21 -4 -42 -13 -48
-20 -7 -8 -24 -17 -39 -21 -15 -4 -67 -26 -117 -51 -49 -24 -95 -44 -101 -44
-6 0 -17 -6 -23 -14 -6 -7 -25 -16 -42 -20 -25 -5 -212 -89 -259 -117 -8 -5
-26 -14 -40 -20 -14 -6 -32 -15 -40 -20 -8 -5 -31 -16 -50 -25 -19 -9 -60 -27
-90 -40 -139 -63 -144 -66 -177 -83 -10 -5 -40 -19 -68 -31 -27 -12 -100 -46
-161 -76 -61 -29 -131 -62 -155 -74 -24 -11 -51 -24 -59 -29 -38 -23 -231
-111 -243 -111 -8 0 -20 -6 -26 -14 -7 -8 -26 -18 -44 -22 -17 -3 -38 -15 -46
-26 -9 -10 -27 -20 -41 -21 -21 -2 -129 -53 -235 -111 -16 -9 -36 -16 -44 -16
-8 0 -29 -11 -47 -25 -18 -14 -38 -25 -44 -25 -6 0 -45 -18 -87 -40 -43 -22
-87 -40 -100 -40 -12 0 -32 -11 -45 -24 -13 -14 -34 -26 -48 -28 -14 -2 -25
-10 -25 -18 0 -12 13 -15 69 -13 39 2 90 9 115 17 25 8 91 17 146 20 55 3 124
12 152 21 29 9 108 20 175 25 68 4 137 14 153 20 17 7 80 16 141 20 61 4 131
15 155 23 24 8 100 18 168 22 68 4 142 13 165 22 23 8 97 18 166 23 69 5 143
15 165 23 22 8 95 17 162 21 67 3 141 13 165 22 24 8 90 18 147 21 86 5 106 9
122 27 14 15 18 28 13 52 -7 39 10 53 36 29 22 -20 20 -22 138 74 52 42 103
82 115 90 12 8 36 26 52 41 17 14 50 39 75 55 43 28 59 41 144 121 21 20 58
49 83 64 25 16 68 49 96 75 29 25 61 54 72 64 11 10 34 25 50 34 17 9 53 36
80 61 28 25 58 48 68 52 9 3 17 9 17 14 0 5 15 17 33 26 31 17 43 27 119 99
20 19 40 35 43 35 7 0 102 78 137 112 39 39 89 49 248 54 85 2 236 13 335 24
267 30 352 38 550 55 99 8 233 22 298 31 65 8 176 19 245 24 70 5 159 13 197
19 39 6 147 18 240 26 94 9 208 20 255 25 47 6 141 15 210 20 69 6 164 17 213
25 48 8 115 15 150 15 130 1 292 31 285 52 -2 6 -35 27 -73 48 -39 20 -86 46
-105 58 -19 12 -53 31 -75 42 -22 11 -48 24 -57 30 -32 18 -50 27 -245 125
-106 53 -212 110 -235 126 -24 16 -48 29 -54 29 -6 0 -19 9 -29 20 -10 11 -24
20 -31 20 -7 0 -42 16 -76 35 -35 20 -70 40 -78 44 -8 5 -64 33 -125 63 -150
74 -259 132 -265 140 -7 9 -58 28 -73 27 -7 0 -23 -5 -37 -11z m-2685 -1389
c0 -24 -5 -34 -15 -34 -16 0 -25 37 -16 62 10 26 31 8 31 -28z m166 26 c-1
-15 -24 -12 -29 3 -3 9 2 13 12 10 10 -1 17 -7 17 -13z m-44 -91 c-3 -4 -14
-3 -24 0 -15 6 -15 8 -3 16 16 10 39 -4 27 -16z m-157 -19 c10 -12 10 -21 1
-41 -13 -30 -35 -27 -39 5 -7 46 14 65 38 36z m-44 -140 c4 -23 2 -41 -6 -51
-17 -20 -28 -7 -30 36 -3 48 -2 50 15 50 8 0 17 -14 21 -35z m-51 -126 c0 -24
-5 -34 -15 -34 -16 0 -25 37 -16 62 10 26 31 8 31 -28z m-39 -133 c-8 -33 -24
-33 -36 0 -8 19 -7 31 1 41 19 22 44 -7 35 -41z m-47 -84 c10 -19 4 -62 -8
-62 -14 0 -31 25 -31 45 0 38 23 47 39 17z m-34 -121 c8 -26 -4 -51 -25 -51
-25 0 -33 16 -26 46 8 29 42 33 51 5z"/>
<path d="M6605 15770 c-3 -5 -1 -10 4 -10 6 0 11 5 11 10 0 6 -2 10 -4 10 -3
0 -8 -4 -11 -10z"/>
<path d="M10887 14814 c-2 -2 -80 -11 -173 -18 -93 -8 -234 -22 -314 -30 -80
-8 -197 -20 -260 -26 -63 -6 -151 -15 -195 -20 -44 -6 -161 -17 -259 -25 -98
-9 -183 -18 -187 -21 -21 -13 -5 -51 49 -113 32 -36 87 -102 123 -146 35 -44
89 -110 119 -146 30 -37 97 -119 149 -182 51 -64 102 -119 113 -122 26 -9 223
3 333 20 50 8 131 17 180 20 90 6 389 41 434 51 23 5 23 7 16 87 -3 45 -12
129 -20 187 -8 58 -19 159 -25 225 -10 125 -25 229 -34 244 -6 10 -43 21 -49
15z"/>
<path d="M9055 14629 c-55 -9 -276 -32 -520 -55 -87 -8 -210 -21 -273 -29 -62
-8 -136 -15 -165 -15 -29 0 -95 -7 -147 -15 -52 -8 -132 -17 -178 -21 -45 -4
-85 -12 -89 -17 -9 -15 -5 -81 12 -212 7 -60 16 -148 20 -195 13 -188 28 -335
35 -343 4 -5 54 -3 111 3 429 44 420 43 729 70 110 10 116 12 140 41 14 16 40
60 59 97 18 37 38 74 42 82 5 8 18 33 29 55 11 22 24 47 29 55 5 8 16 29 24
45 7 17 32 64 54 105 131 240 173 323 173 335 0 10 -26 29 -33 24 -1 -1 -24
-5 -52 -10z"/>
<path d="M5800 13636 c0 -7 7 -19 15 -26 8 -7 15 -18 15 -24 0 -7 11 -34 24
-62 14 -27 30 -60 35 -74 6 -14 15 -32 21 -40 5 -8 16 -31 25 -50 8 -19 18
-42 23 -50 5 -8 18 -35 29 -60 18 -38 78 -160 104 -210 4 -8 14 -28 22 -45 7
-16 30 -61 49 -100 19 -38 53 -108 76 -155 114 -240 104 -225 140 -228 23 -2
56 8 110 36 42 22 91 42 107 46 17 4 50 16 75 28 25 11 74 34 110 50 36 16 77
36 92 44 14 8 33 14 42 14 9 0 30 10 46 22 39 28 60 12 60 -46 0 -25 8 -51 20
-66 11 -14 20 -39 20 -55 0 -17 9 -56 20 -88 11 -31 20 -67 20 -80 0 -12 7
-33 16 -46 16 -22 21 -23 83 -17 138 15 186 22 199 29 14 10 17 185 3 234 -5
17 -14 116 -20 220 -17 274 -28 382 -41 399 -7 7 -31 19 -54 25 -22 6 -57 17
-76 25 -19 8 -55 18 -80 24 -88 18 -176 41 -220 57 -25 8 -65 19 -90 24 -25 5
-67 15 -95 23 -27 8 -77 21 -110 29 -33 9 -100 27 -150 41 -49 14 -115 31
-145 37 -30 5 -82 18 -115 28 -165 50 -203 61 -222 61 -11 0 -49 9 -83 20 -74
24 -100 25 -100 6z"/>
<path d="M10380 13598 c-30 -5 -77 -11 -105 -13 -118 -8 -295 -26 -359 -37
-79 -13 -112 -37 -101 -71 3 -12 10 -85 14 -162 7 -124 19 -185 38 -185 3 0
31 17 62 38 31 20 63 42 72 47 18 11 45 29 244 160 77 50 180 118 228 150 48
31 86 62 84 69 -5 14 -105 17 -177 4z"/>
<path d="M8940 13410 c-25 -5 -115 -13 -201 -19 -85 -6 -176 -15 -201 -20 -26
-6 -111 -16 -190 -21 -78 -6 -192 -18 -253 -27 -60 -8 -153 -19 -205 -23 -110
-10 -100 -8 -100 -19 0 -14 28 -23 115 -36 185 -30 224 -36 300 -51 44 -9 127
-22 184 -29 56 -8 117 -19 135 -24 17 -6 69 -15 116 -21 47 -6 112 -17 145
-25 33 -7 87 -16 120 -19 33 -3 79 -12 103 -20 55 -20 58 -14 43 107 -6 51
-15 128 -19 172 -8 90 -8 90 -92 75z"/>
<path d="M10064 13033 c-55 -33 -61 -38 -89 -81 -25 -38 -29 -53 -28 -111 1
-89 33 -138 115 -175 76 -34 118 -33 184 4 61 36 114 114 114 171 0 53 -48
137 -97 170 -56 39 -152 50 -199 22z"/>
<path d="M8535 12850 c-10 -11 -26 -22 -36 -25 -11 -4 -34 -27 -51 -53 -29
-41 -33 -55 -32 -108 1 -83 32 -139 99 -177 44 -24 58 -27 113 -24 75 6 114
31 167 112 34 50 36 58 30 105 -7 58 -54 136 -89 150 -12 4 -28 15 -35 24 -21
25 -142 22 -166 -4z"/>
<path d="M6770 12429 c-19 -10 -42 -19 -51 -19 -9 0 -22 -7 -29 -15 -7 -8 -27
-17 -46 -21 -48 -9 -50 -19 -7 -51 21 -15 70 -57 108 -94 174 -165 200 -189
207 -189 14 0 9 29 -12 70 -11 22 -20 47 -20 57 0 10 -9 35 -20 56 -11 20 -20
47 -20 60 0 12 -10 40 -22 62 -11 22 -24 53 -27 69 -8 37 -18 39 -61 15z"/>
<path d="M9710 12045 c-30 -8 -122 -19 -204 -25 -82 -6 -165 -17 -185 -23 -63
-21 -51 -35 94 -106 112 -55 131 -65 145 -76 43 -35 59 -28 162 73 54 53 112
105 129 115 17 11 29 26 27 36 -4 22 -94 25 -168 6z"/>
<path d="M7105 11749 c-55 -4 -136 -15 -180 -23 -44 -9 -103 -16 -131 -16 -73
0 -79 -13 -44 -88 17 -34 30 -71 30 -82 0 -12 7 -35 16 -52 12 -24 14 -41 6
-84 -5 -30 -6 -54 -3 -54 9 0 31 -52 31 -74 0 -12 10 -55 21 -96 22 -80 31
-115 47 -196 6 -28 12 -56 14 -63 2 -7 -4 -17 -12 -21 -37 -21 -151 -70 -163
-70 -8 0 -22 -9 -32 -20 -10 -11 -26 -20 -36 -20 -21 0 -101 -30 -109 -41 -3
-3 -21 -10 -40 -14 -19 -4 -46 -13 -60 -20 -67 -35 -139 -65 -154 -65 -18 0
-58 -18 -66 -30 -3 -4 -25 -14 -50 -23 -45 -15 -184 -75 -295 -127 -33 -16
-78 -32 -100 -36 -22 -4 -67 -22 -100 -40 -33 -17 -76 -35 -95 -39 -19 -4 -44
-13 -55 -19 -11 -7 -42 -21 -70 -31 -27 -10 -66 -29 -85 -42 -19 -13 -44 -23
-56 -23 -12 0 -29 -11 -38 -25 -9 -14 -26 -25 -37 -25 -25 0 -95 -35 -132 -66
-21 -17 -41 -24 -72 -24 -59 0 -66 -17 -13 -29 24 -6 57 -16 73 -22 17 -6 64
-16 105 -21 41 -5 82 -16 90 -23 34 -31 190 -31 190 0 0 9 15 17 38 20 77 13
92 17 92 25 0 4 17 11 38 15 20 3 55 15 77 25 22 11 59 24 82 30 23 6 45 15
48 20 3 5 27 12 53 15 26 4 59 11 73 16 47 18 75 -3 114 -85 19 -41 35 -81 35
-88 0 -7 9 -30 20 -51 11 -20 20 -42 20 -48 0 -7 9 -30 19 -53 11 -23 26 -61
34 -86 34 -102 57 -163 66 -174 5 -6 12 -27 16 -46 9 -41 52 -130 63 -130 4 0
12 4 17 9 19 18 291 151 308 151 29 0 30 26 3 84 -14 30 -26 61 -26 68 0 7 -9
27 -20 43 -11 17 -20 39 -20 50 0 11 -9 37 -20 58 -11 20 -20 43 -20 49 0 7
-12 36 -25 63 -14 28 -25 57 -25 65 0 8 -7 28 -15 44 -8 16 -29 67 -45 114
-26 76 -28 88 -16 106 32 48 57 66 91 66 22 0 43 8 55 20 13 13 33 20 60 20
26 0 47 7 59 19 11 11 40 23 65 26 26 4 57 16 70 26 14 11 40 19 63 19 22 0
48 8 63 20 15 12 41 20 66 20 26 0 51 8 68 21 14 11 43 25 63 31 30 8 34 12
20 19 -15 9 -64 104 -82 159 -4 13 -16 37 -26 52 -11 16 -28 41 -39 58 -11 16
-20 38 -20 48 0 11 -22 64 -49 119 -61 122 -68 148 -48 171 8 9 18 28 22 42 4
14 16 34 26 45 10 11 28 43 40 70 12 28 37 72 56 99 18 26 33 57 33 67 0 10 9
23 19 29 11 5 22 24 26 42 4 18 20 50 36 70 16 20 29 41 29 46 0 10 -26 23
-38 21 -4 -1 -52 -5 -107 -10z"/>
<path d="M14067 11725 c-8 -7 -28 -17 -43 -21 -16 -3 -40 -13 -54 -22 -48 -31
-115 -63 -173 -83 -61 -22 -273 -129 -319 -161 -16 -11 -28 -26 -28 -34 0 -8
-9 -14 -21 -14 -11 0 -44 -13 -72 -28 -29 -16 -61 -34 -72 -39 -11 -6 -34 -17
-52 -23 -17 -7 -34 -18 -37 -26 -3 -8 -19 -14 -35 -14 -19 0 -35 -8 -44 -20
-9 -13 -20 -18 -30 -14 -15 5 -63 -16 -247 -111 -78 -40 -139 -81 -153 -102
-4 -7 -16 -13 -26 -13 -10 0 -29 -9 -43 -19 -13 -11 -38 -23 -54 -27 -16 -4
-37 -15 -47 -25 -10 -11 -26 -19 -37 -19 -10 0 -31 -11 -46 -25 -15 -14 -39
-25 -54 -25 -15 0 -121 -48 -236 -106 -199 -100 -211 -105 -259 -100 -27 3
-68 14 -90 25 -21 12 -45 21 -52 21 -7 0 -30 9 -50 20 -21 11 -45 20 -53 20
-9 0 -24 6 -35 14 -11 7 -38 19 -60 26 -22 7 -51 19 -64 27 -45 29 -194 18
-239 -18 -14 -10 -33 -19 -42 -19 -10 0 -23 -7 -30 -15 -7 -8 -30 -20 -51 -25
-22 -6 -39 -17 -39 -24 0 -9 -18 -16 -49 -20 -28 -4 -93 -27 -145 -51 -52 -25
-100 -45 -105 -45 -6 0 -20 -13 -33 -30 -12 -16 -29 -30 -38 -30 -10 0 -34
-11 -54 -25 -20 -14 -48 -28 -62 -31 -13 -3 -29 -15 -35 -25 -5 -11 -18 -19
-29 -19 -10 0 -32 -11 -48 -25 -17 -14 -37 -25 -45 -25 -8 0 -26 -9 -40 -20
-14 -11 -29 -20 -34 -20 -5 0 -24 -11 -43 -25 -19 -14 -44 -25 -55 -25 -12 0
-30 -9 -40 -20 -10 -11 -23 -20 -30 -20 -14 0 -138 -60 -145 -70 -3 -4 -16
-11 -30 -15 -14 -4 -34 -15 -45 -25 -11 -10 -33 -22 -50 -26 -16 -4 -41 -15
-54 -26 -13 -10 -31 -18 -39 -18 -9 0 -26 -10 -38 -21 -13 -12 -35 -23 -50
-25 -14 -1 -35 -12 -45 -23 -11 -12 -29 -21 -41 -21 -12 0 -31 -9 -42 -19 -27
-25 -133 -33 -127 -10 2 8 7 38 12 67 4 30 15 62 24 72 9 9 19 35 22 56 3 22
12 46 20 55 8 9 16 34 20 55 3 22 14 53 23 69 10 17 21 45 25 63 8 40 -10 50
-54 28 -19 -10 -56 -16 -99 -16 -38 0 -107 -6 -153 -14 -46 -8 -136 -19 -199
-25 -63 -6 -153 -18 -200 -26 -47 -8 -157 -21 -245 -30 -88 -8 -187 -20 -220
-25 -144 -22 -355 -44 -409 -42 -61 2 -131 -12 -141 -28 -3 -5 3 -22 13 -37
10 -16 33 -49 50 -75 18 -25 32 -51 32 -56 0 -5 7 -15 15 -22 13 -10 57 -80
94 -149 8 -14 32 -49 53 -78 21 -28 46 -69 55 -90 10 -21 28 -46 41 -56 12
-10 22 -22 22 -27 0 -14 81 -144 108 -172 23 -25 24 -30 12 -53 -15 -27 -120
-98 -163 -109 -54 -13 -52 -35 14 -168 33 -68 65 -132 71 -143 6 -11 61 -119
120 -240 60 -121 152 -305 204 -408 52 -104 94 -195 94 -202 0 -7 7 -18 15
-25 12 -10 39 -1 150 54 74 36 138 66 143 66 5 0 15 7 22 15 6 8 103 59 214
113 111 55 207 107 215 116 19 23 54 20 79 -7 12 -13 63 -104 113 -203 50 -98
97 -190 105 -204 7 -14 68 -137 134 -275 66 -137 127 -262 135 -277 8 -14 15
-41 15 -58 l0 -33 -317 8 c-175 3 -394 10 -487 15 l-170 8 -40 -27 c-23 -16
-60 -38 -82 -49 -23 -12 -44 -28 -47 -37 -4 -8 -11 -15 -16 -15 -17 0 -121
-70 -121 -80 0 -6 -13 -10 -29 -10 -16 0 -36 -3 -45 -6 -24 -9 -19 -34 6 -34
16 0 19 -3 11 -11 -8 -8 -16 -7 -30 2 -24 15 -73 4 -73 -15 0 -8 -13 -17 -29
-21 -16 -3 -43 -19 -60 -34 -17 -15 -55 -36 -83 -45 -29 -9 -60 -24 -70 -33
-22 -20 -51 -37 -100 -59 -21 -9 -38 -20 -38 -25 0 -4 -20 -17 -44 -27 -24
-11 -47 -25 -50 -31 -4 -6 -16 -11 -26 -11 -11 0 -27 -11 -36 -25 -9 -14 -24
-25 -34 -25 -21 0 -140 -59 -140 -70 0 -4 -17 -11 -37 -15 -21 -4 -43 -15 -51
-26 -7 -10 -24 -19 -37 -19 -14 0 -30 -9 -37 -20 -7 -11 -20 -20 -28 -20 -8 0
-44 -16 -80 -35 -36 -19 -84 -43 -106 -55 -23 -11 -47 -27 -54 -35 -7 -8 -25
-15 -40 -15 -15 0 -30 -6 -33 -14 -3 -7 -19 -16 -35 -19 -16 -3 -36 -12 -44
-20 -7 -8 -31 -22 -52 -32 -32 -15 -35 -20 -21 -27 11 -7 33 -4 66 6 27 9 54
14 58 11 5 -2 31 2 57 11 27 8 83 21 124 29 94 17 236 54 275 71 17 7 62 17
100 23 112 17 123 19 144 30 11 6 43 11 70 11 28 0 59 4 69 9 34 19 132 43
160 40 16 -2 41 4 55 14 14 9 44 17 66 17 22 0 71 11 108 26 70 26 174 47 228
45 17 0 62 -16 100 -36 39 -19 77 -35 86 -35 9 0 29 -10 43 -21 34 -26 135
-79 152 -79 16 0 84 -40 84 -49 0 -8 52 -28 90 -34 38 -7 101 -46 135 -83 36
-39 66 -44 152 -25 53 12 67 12 100 -1 30 -11 90 -14 276 -12 131 1 241 4 244
8 14 13 2 129 -17 164 -14 25 -20 56 -20 97 0 60 1 61 45 98 25 21 45 46 45
55 0 9 -10 37 -22 62 -11 25 -24 52 -28 60 -4 8 -12 24 -17 35 -6 11 -16 31
-22 45 -6 14 -15 32 -20 40 -24 37 -141 291 -141 304 0 8 -5 27 -12 41 -8 19
-8 31 0 48 6 12 13 45 15 72 3 28 12 82 21 120 9 39 20 95 25 125 5 30 15 69
22 87 11 26 10 46 -4 125 -9 51 -22 131 -27 178 -6 47 -15 99 -20 115 -5 17
-14 82 -20 145 -6 63 -20 158 -30 212 -11 53 -20 112 -20 131 0 31 4 36 38 50
21 8 44 22 51 31 8 9 26 16 41 16 15 0 30 6 33 14 3 8 23 20 44 26 21 7 49 21
62 31 13 11 31 19 41 19 9 0 27 9 40 20 13 11 30 20 40 20 9 0 31 11 50 25 19
14 42 25 51 25 10 0 21 4 24 10 3 5 25 18 48 29 85 40 91 50 98 170 3 58 11
122 18 141 6 19 16 91 22 160 6 69 16 146 24 172 8 26 17 80 21 120 8 92 15
105 63 118 21 5 46 19 56 30 10 11 23 20 29 20 10 0 54 27 196 119 30 20 67
43 81 51 47 27 91 55 138 85 25 17 59 36 74 43 15 6 33 16 40 22 46 39 92 62
107 53 13 -9 111 -186 139 -253 6 -14 16 -34 23 -45 6 -11 31 -59 56 -107 24
-48 48 -90 53 -93 5 -4 9 -15 9 -25 0 -10 12 -33 27 -50 25 -30 27 -31 40 -14
7 10 13 26 13 37 0 10 8 39 19 65 10 26 31 88 46 137 15 50 36 108 45 130 10
22 21 50 24 61 10 34 67 74 181 128 17 8 41 26 54 40 14 14 30 26 37 26 6 0
17 6 23 14 7 8 25 18 41 21 16 3 31 12 33 19 3 8 18 17 33 20 15 4 39 16 52
27 14 10 32 19 42 19 10 0 28 8 41 19 13 10 42 21 64 25 22 5 96 38 165 74 69
36 141 74 161 85 20 10 45 27 54 38 10 10 26 19 36 19 10 0 30 11 45 25 15 14
37 25 50 25 13 0 28 9 34 20 6 12 21 20 35 20 13 0 32 8 42 19 10 10 53 31 96
45 43 15 104 41 135 58 31 17 91 49 132 70 41 22 91 55 110 74 20 18 40 34 44
34 17 0 153 70 166 85 7 8 21 15 31 15 28 0 31 14 30 132 -1 73 2 107 9 103
17 -11 30 44 32 135 2 107 -10 131 -45 95z m-4987 -4388 c0 -8 -3 -17 -7 -20
-9 -9 -34 13 -27 24 8 14 34 11 34 -4z m54 -110 c-3 -8 -11 -14 -19 -14 -21 0
-19 15 3 20 9 3 18 5 19 6 1 0 0 -5 -3 -12z m-194 -12 c0 -9 -9 -15 -23 -15
-14 0 -24 6 -24 15 0 9 10 15 24 15 14 0 23 -6 23 -15z m250 -103 c0 -7 -4
-10 -10 -7 -5 3 -10 16 -10 28 0 18 2 19 10 7 5 -8 10 -21 10 -28z m-370 14
c0 -2 -7 -6 -15 -10 -8 -3 -15 -1 -15 4 0 6 7 10 15 10 8 0 15 -2 15 -4z m130
-41 c-7 -8 -19 -15 -26 -15 -8 0 -14 7 -14 15 0 10 10 15 26 15 22 0 25 -2 14
-15z m365 -216 c-6 -19 -9 -20 -16 -6 -11 20 0 52 13 39 6 -6 7 -20 3 -33z
m-992 17 c4 -10 1 -13 -9 -9 -15 6 -19 23 -5 23 5 0 11 -7 14 -14z m-168 -105
c3 -5 -4 -13 -16 -16 -23 -8 -34 -1 -24 14 8 13 32 14 40 2z m172 -7 c-3 -3
-12 -4 -19 -1 -8 3 -5 6 6 6 11 1 17 -2 13 -5z m923 -14 c0 -5 -4 -10 -10 -10
-5 0 -10 5 -10 10 0 6 5 10 10 10 6 0 10 -4 10 -10z m-1013 -36 c-3 -3 -12 -4
-19 -1 -8 3 -5 6 6 6 11 1 17 -2 13 -5z m1203 -89 c11 -13 8 -15 -14 -15 -16
0 -26 5 -26 15 0 8 6 15 14 15 7 0 19 -7 26 -15z m-1685 -75 c4 -6 -5 -10 -20
-10 -15 0 -24 4 -20 10 3 6 12 10 20 10 8 0 17 -4 20 -10z m2371 -15 c-21 -16
-56 -20 -56 -7 0 16 13 22 44 22 29 -1 30 -1 12 -15z m-264 -112 c-6 -3 -10
-9 -6 -14 3 -5 -3 -9 -12 -9 -16 0 -16 2 1 20 10 11 21 17 24 14 3 -4 0 -9 -7
-11z"/>
<path d="M5855 11557 c-11 -8 -40 -21 -65 -29 -162 -57 -200 -76 -200 -100 0
-9 4 -19 8 -22 5 -3 15 -30 22 -61 7 -31 17 -58 21 -60 10 -7 141 35 159 51 9
7 35 16 58 20 24 4 50 13 58 22 8 8 36 17 62 19 71 7 78 10 60 31 -8 9 -25 40
-37 67 -13 28 -30 56 -39 63 -21 16 -82 15 -107 -1z"/>
<path d="M9940 11265 c-52 -8 -144 -19 -205 -25 -60 -6 -166 -18 -235 -27 -69
-9 -170 -20 -225 -24 -187 -17 -228 -23 -238 -40 -12 -20 0 -88 17 -95 18 -7
328 25 701 72 72 9 191 20 265 24 74 4 136 8 138 9 8 4 0 99 -10 109 -15 15
-85 14 -208 -3z"/>
<path d="M6100 11260 c0 -5 5 -10 10 -10 6 0 10 5 10 10 0 6 -4 10 -10 10 -5
0 -10 -4 -10 -10z"/>
<path d="M5556 11141 c-4 -7 -5 -15 -2 -18 9 -9 19 4 14 18 -4 11 -6 11 -12 0z"/>
<path d="M11830 9611 c-30 -16 -93 -47 -140 -71 -47 -24 -128 -65 -180 -91
-52 -27 -171 -87 -265 -135 -93 -47 -224 -115 -290 -150 -66 -35 -135 -72
-153 -81 -37 -19 -37 -34 0 -44 36 -10 142 -63 469 -238 34 -18 69 -40 77 -47
7 -8 21 -14 30 -14 9 0 40 -14 67 -30 28 -16 55 -30 62 -30 16 0 64 83 97 170
16 41 37 91 47 111 11 20 19 43 19 51 0 7 8 24 17 38 15 21 36 74 104 269 11
30 25 64 33 76 7 11 17 35 21 54 4 18 18 54 31 80 31 60 42 111 23 110 -8 0
-39 -13 -69 -28z"/>
<path d="M5679 6978 c-3 -32 5 -53 42 -108 21 -32 39 -63 39 -68 0 -5 8 -17
19 -26 10 -9 22 -31 25 -48 3 -17 15 -37 26 -45 11 -8 20 -20 20 -28 0 -8 11
-26 25 -41 14 -15 25 -32 25 -39 0 -7 7 -18 15 -25 10 -8 15 -30 15 -62 0 -55
-12 -71 -82 -108 -21 -11 -38 -25 -38 -30 0 -6 -8 -10 -19 -10 -10 0 -30 -9
-44 -20 -14 -11 -39 -23 -57 -26 -17 -4 -36 -16 -42 -27 -10 -20 -11 -20 -29
4 -27 34 -143 209 -163 244 -9 17 -24 42 -34 56 -9 14 -28 45 -42 67 -14 23
-41 50 -61 61 -48 28 -172 45 -215 31 -36 -12 -39 -18 -49 -84 -4 -25 -11 -46
-15 -46 -14 0 -30 -62 -30 -117 0 -40 -6 -62 -20 -80 -14 -18 -20 -41 -20 -74
0 -32 -8 -64 -25 -95 -19 -36 -24 -56 -20 -93 6 -55 19 -66 84 -74 28 -3 63
-13 79 -21 16 -8 53 -18 83 -21 30 -4 75 -15 101 -26 26 -10 63 -19 82 -19 19
0 52 -9 73 -19 21 -11 58 -23 83 -27 37 -5 51 -14 83 -53 70 -85 76 -92 82
-122 4 -16 10 -29 15 -29 8 0 51 -68 77 -120 7 -14 17 -32 22 -40 5 -8 22 -41
36 -74 15 -32 44 -77 66 -99 21 -23 39 -47 39 -54 0 -7 9 -18 20 -25 11 -7 20
-16 20 -20 0 -4 32 -38 70 -77 39 -38 70 -74 70 -79 0 -6 38 -50 85 -99 47
-48 85 -92 85 -97 0 -5 30 -38 66 -74 36 -37 72 -78 80 -93 7 -15 29 -40 48
-56 19 -15 53 -53 77 -83 23 -30 56 -69 73 -85 17 -17 36 -39 42 -50 9 -16 16
-18 29 -10 20 12 57 75 74 127 7 21 18 41 25 45 13 8 58 72 84 120 7 13 16 39
19 58 5 30 3 35 -13 35 -21 0 -84 89 -84 119 0 10 -8 29 -18 42 -10 13 -34 51
-52 84 -19 33 -37 62 -41 65 -4 3 -23 36 -43 75 -21 38 -52 90 -71 115 -18 25
-41 68 -50 97 -9 29 -26 63 -37 75 -11 13 -22 35 -25 50 -3 16 -12 28 -19 28
-18 0 -80 85 -95 130 -7 19 -22 48 -35 63 -13 16 -24 33 -24 38 0 6 -11 25
-25 43 -14 18 -25 39 -25 46 0 6 -11 21 -24 31 -14 11 -28 34 -31 52 -4 17
-22 47 -41 64 -19 18 -34 39 -34 47 0 24 45 52 107 65 75 17 107 50 123 128 7
32 18 67 25 78 7 11 16 36 20 55 4 19 16 52 26 72 11 21 19 45 19 55 0 10 10
41 22 70 l22 53 -29 30 c-16 17 -35 30 -42 30 -8 0 -26 9 -41 20 -39 28 -165
70 -212 70 -22 0 -40 4 -40 9 0 13 -48 29 -107 35 -29 3 -62 11 -75 19 -13 8
-45 17 -72 21 -27 3 -57 13 -66 21 -21 19 -109 21 -111 3z"/>
<path d="M7215 6370 c3 -5 12 -7 20 -3 21 7 19 13 -6 13 -11 0 -18 -4 -14 -10z"/>
<path d="M8000 5840 c-9 -16 -9 -69 0 -218 16 -277 28 -542 30 -642 0 -67 4
-90 19 -109 21 -27 7 -28 181 11 25 5 88 13 140 18 52 5 149 18 215 29 66 12
140 21 164 21 24 0 60 4 80 9 91 23 142 31 224 33 57 1 92 6 99 15 17 21 7
352 -17 533 -2 19 -7 91 -11 160 -3 69 -8 128 -10 131 -2 3 -227 9 -501 13
-274 4 -521 9 -550 12 -45 5 -52 4 -63 -16z"/>
<path d="M9692 5817 c-8 -9 -14 -31 -15 -49 -1 -39 22 -478 31 -593 l7 -80 59
-3 c32 -2 73 2 90 8 34 12 50 14 216 31 63 6 124 15 136 19 12 5 55 12 95 16
41 3 90 13 109 21 19 8 78 17 130 19 52 2 108 9 124 16 28 11 28 12 22 72 -3
33 -15 78 -25 100 -10 23 -22 59 -26 81 -3 22 -12 49 -19 60 -7 11 -19 45 -26
75 -7 30 -16 60 -21 65 -4 6 -11 31 -15 55 -4 25 -10 50 -13 57 -6 12 -112 19
-421 28 -52 1 -169 6 -260 10 -144 6 -167 5 -178 -8z"/>
<path d="M6531 5764 c0 -11 3 -14 6 -6 3 7 2 16 -1 19 -3 4 -6 -2 -5 -13z"/>
<path d="M6582 5690 c0 -14 2 -19 5 -12 2 6 2 18 0 25 -3 6 -5 1 -5 -13z"/>
<path d="M6760 5383 c0 -13 5 -23 10 -23 13 0 13 11 0 30 -8 12 -10 11 -10 -7z"/>
<path d="M6838 5238 c-3 -7 1 -26 8 -43 14 -31 18 -27 14 15 -2 30 -15 47 -22
28z"/>
<path d="M6870 5160 c-13 -8 -12 -10 3 -10 9 0 17 5 17 10 0 12 -1 12 -20 0z"/>
<path d="M10653 5150 c-3 -11 -13 -20 -22 -20 -25 0 -139 -80 -196 -137 -12
-13 -26 -23 -30 -23 -4 0 -22 -12 -40 -27 -19 -16 -55 -44 -81 -63 -26 -19
-55 -42 -63 -51 -9 -9 -47 -38 -86 -65 -38 -27 -76 -55 -84 -62 -8 -8 -39 -32
-70 -55 -31 -23 -58 -44 -61 -47 -13 -14 -89 -70 -95 -70 -7 0 -89 -65 -169
-133 -27 -23 -63 -51 -80 -61 -17 -11 -62 -47 -100 -79 -38 -32 -80 -64 -93
-70 -13 -5 -23 -14 -23 -19 0 -4 -6 -8 -14 -8 -8 0 -16 -3 -18 -8 -5 -12 -138
-122 -148 -122 -5 0 -29 -17 -54 -37 -70 -59 -134 -103 -148 -103 -7 0 -33 14
-57 30 -45 31 -75 38 -86 20 -11 -18 -74 -11 -95 10 -14 14 -33 20 -66 20 -35
0 -54 6 -77 26 -25 21 -39 25 -76 22 -40 -3 -47 0 -57 21 -11 21 -19 24 -73
25 -51 1 -63 5 -76 24 -14 18 -25 22 -73 22 -46 0 -60 4 -70 20 -7 12 -23 20
-41 20 -50 0 -55 -16 -47 -168 10 -196 13 -244 25 -394 6 -73 13 -266 16 -428
4 -162 11 -342 17 -400 6 -58 12 -121 13 -140 1 -19 6 -51 10 -71 4 -23 3 -39
-4 -43 -19 -12 -13 -53 8 -59 24 -6 103 3 325 37 93 14 172 23 177 20 14 -8
11 -52 -6 -77 -8 -12 -17 -52 -19 -87 -3 -36 -15 -89 -26 -118 -11 -29 -20
-70 -20 -92 0 -75 -40 -99 -195 -119 -34 -4 -70 -13 -80 -18 -11 -6 -56 -16
-100 -23 -44 -7 -91 -18 -105 -25 -14 -7 -52 -16 -84 -20 -33 -4 -71 -11 -85
-17 -14 -5 -61 -16 -105 -24 -43 -7 -83 -18 -90 -23 -6 -5 -36 -12 -66 -15
-30 -4 -83 -15 -117 -26 -35 -11 -86 -22 -115 -26 -29 -4 -61 -13 -70 -22 -11
-9 -46 -17 -90 -20 -50 -3 -81 -11 -97 -23 -13 -11 -36 -19 -52 -19 -33 0 -31
12 -54 -250 -10 -102 -19 -199 -21 -215 -2 -17 0 -35 4 -41 5 -9 237 -13 866
-15 l860 -4 7 29 c6 21 3 39 -11 67 -25 47 -27 114 -4 123 9 3 336 6 727 6
671 0 915 8 940 30 8 7 -60 92 -144 181 -19 19 -61 66 -94 104 -33 37 -67 75
-76 84 -8 9 -43 49 -77 89 -57 67 -81 94 -152 173 -14 15 -30 34 -36 41 -52
66 -130 156 -143 168 -9 8 -38 41 -64 73 -42 51 -47 63 -47 107 0 35 5 54 19
67 11 11 20 38 24 66 3 29 11 53 21 60 10 7 20 32 23 57 3 25 12 50 20 57 8 6
16 26 18 44 3 17 15 48 29 68 13 20 27 57 31 84 3 26 10 47 15 47 5 0 14 19
20 43 7 23 18 56 25 72 8 17 17 46 20 65 4 19 16 49 26 66 10 17 19 39 19 48
0 9 9 34 19 54 11 21 22 54 26 75 4 20 13 41 20 47 8 6 16 29 20 50 4 21 13
44 21 51 8 6 14 25 14 42 0 28 -1 29 -14 12 -28 -38 -40 -30 -100 68 -9 15
-21 25 -25 22 -5 -3 -23 12 -41 33 -17 20 -42 49 -56 63 -13 14 -24 30 -24 36
0 6 -23 28 -51 48 -30 21 -56 50 -65 71 -11 25 -20 34 -38 34 -50 0 -64 68
-16 82 193 56 253 74 298 89 29 11 67 19 85 19 18 0 42 7 54 15 12 9 54 19 92
24 42 6 77 16 87 26 10 10 29 15 47 13 27 -3 31 1 43 34 7 20 19 47 27 60 8
12 18 37 22 55 3 17 13 37 21 44 8 6 14 17 14 24 0 6 11 32 23 56 13 24 27 62
31 84 4 22 14 51 21 65 33 61 65 141 65 160 0 12 9 33 20 47 11 14 20 33 20
43 0 10 8 28 19 41 10 13 22 44 26 69 4 25 16 56 26 69 19 23 17 41 -3 41 -5
0 -12 -9 -15 -20z"/>
<path d="M6925 4940 c-3 -5 -2 -17 3 -26 8 -14 10 -14 15 5 5 22 -7 38 -18 21z"/>
<path d="M10226 4111 c-4 -7 -5 -15 -2 -18 9 -9 19 4 14 18 -4 11 -6 11 -12 0z"/>
<path d="M8080 2419 c0 -5 5 -7 10 -4 6 3 10 8 10 11 0 2 -4 4 -10 4 -5 0 -10
-5 -10 -11z"/>
<path d="M7075 2330 c-6 -10 11 -50 21 -50 3 0 20 10 37 22 l31 22 -24 7 c-37
10 -58 10 -65 -1z"/>
</g>
</svg>
